<mxfile host="app.diagrams.net" modified="2023-10-31T10:14:56.657Z" agent="Mozilla/5.0 (Windows NT 10.0; Win64; x64) AppleWebKit/537.36 (KHTML, like Gecko) Chrome/118.0.0.0 Safari/537.36" etag="mA_iPE_f1gVdOuRkeefC" version="22.0.8" type="github">
  <diagram id="C5RBs43oDa-KdzZeNtuy" name="Page-1">
    <mxGraphModel dx="1707" dy="478" grid="1" gridSize="10" guides="1" tooltips="1" connect="1" arrows="1" fold="1" page="1" pageScale="1" pageWidth="827" pageHeight="1169" math="0" shadow="0">
      <root>
        <mxCell id="WIyWlLk6GJQsqaUBKTNV-0" />
        <mxCell id="WIyWlLk6GJQsqaUBKTNV-1" parent="WIyWlLk6GJQsqaUBKTNV-0" />
        <mxCell id="mPyTUqxMGJh4DycX4-v5-0" value="Barrios" style="rounded=0;whiteSpace=wrap;html=1;" vertex="1" parent="WIyWlLk6GJQsqaUBKTNV-1">
          <mxGeometry x="160" y="380" width="120" height="60" as="geometry" />
        </mxCell>
        <mxCell id="mPyTUqxMGJh4DycX4-v5-1" value="Tramos" style="rounded=0;whiteSpace=wrap;html=1;" vertex="1" parent="WIyWlLk6GJQsqaUBKTNV-1">
          <mxGeometry x="160" y="500" width="120" height="60" as="geometry" />
        </mxCell>
        <mxCell id="mPyTUqxMGJh4DycX4-v5-2" value="Calles" style="rounded=0;whiteSpace=wrap;html=1;" vertex="1" parent="WIyWlLk6GJQsqaUBKTNV-1">
          <mxGeometry x="160" y="260" width="120" height="60" as="geometry" />
        </mxCell>
        <mxCell id="mPyTUqxMGJh4DycX4-v5-3" value="Estaciones" style="rounded=0;whiteSpace=wrap;html=1;" vertex="1" parent="WIyWlLk6GJQsqaUBKTNV-1">
          <mxGeometry x="160" y="860" width="120" height="60" as="geometry" />
        </mxCell>
        <mxCell id="mPyTUqxMGJh4DycX4-v5-4" value="Líneas de metro" style="rounded=0;whiteSpace=wrap;html=1;" vertex="1" parent="WIyWlLk6GJQsqaUBKTNV-1">
          <mxGeometry x="160" y="740" width="120" height="60" as="geometry" />
        </mxCell>
        <mxCell id="mPyTUqxMGJh4DycX4-v5-5" value="Puntos de Interés" style="rounded=0;whiteSpace=wrap;html=1;" vertex="1" parent="WIyWlLk6GJQsqaUBKTNV-1">
          <mxGeometry x="160" y="980" width="120" height="60" as="geometry" />
        </mxCell>
        <mxCell id="mPyTUqxMGJh4DycX4-v5-6" value="Líneas de autobuses&amp;nbsp;" style="rounded=0;whiteSpace=wrap;html=1;" vertex="1" parent="WIyWlLk6GJQsqaUBKTNV-1">
          <mxGeometry x="160" y="620" width="120" height="60" as="geometry" />
        </mxCell>
        <mxCell id="mPyTUqxMGJh4DycX4-v5-7" value="" style="endArrow=none;html=1;rounded=0;" edge="1" parent="WIyWlLk6GJQsqaUBKTNV-1" source="mPyTUqxMGJh4DycX4-v5-1">
          <mxGeometry width="50" height="50" relative="1" as="geometry">
            <mxPoint x="220" y="479.28932188134524" as="sourcePoint" />
            <mxPoint x="220" y="440" as="targetPoint" />
          </mxGeometry>
        </mxCell>
        <mxCell id="mPyTUqxMGJh4DycX4-v5-8" value="" style="endArrow=none;html=1;rounded=0;" edge="1" parent="WIyWlLk6GJQsqaUBKTNV-1">
          <mxGeometry width="50" height="50" relative="1" as="geometry">
            <mxPoint x="219.5" y="380" as="sourcePoint" />
            <mxPoint x="219.5" y="320" as="targetPoint" />
            <Array as="points">
              <mxPoint x="219.5" y="320" />
            </Array>
          </mxGeometry>
        </mxCell>
        <mxCell id="mPyTUqxMGJh4DycX4-v5-9" value="" style="endArrow=none;html=1;rounded=0;" edge="1" parent="WIyWlLk6GJQsqaUBKTNV-1">
          <mxGeometry width="50" height="50" relative="1" as="geometry">
            <mxPoint x="219.5" y="620" as="sourcePoint" />
            <mxPoint x="219.5" y="560" as="targetPoint" />
          </mxGeometry>
        </mxCell>
        <mxCell id="mPyTUqxMGJh4DycX4-v5-10" value="" style="endArrow=none;html=1;rounded=0;" edge="1" parent="WIyWlLk6GJQsqaUBKTNV-1">
          <mxGeometry width="50" height="50" relative="1" as="geometry">
            <mxPoint x="219.5" y="740" as="sourcePoint" />
            <mxPoint x="219.5" y="680" as="targetPoint" />
          </mxGeometry>
        </mxCell>
        <mxCell id="mPyTUqxMGJh4DycX4-v5-11" value="" style="endArrow=none;html=1;rounded=0;" edge="1" parent="WIyWlLk6GJQsqaUBKTNV-1">
          <mxGeometry width="50" height="50" relative="1" as="geometry">
            <mxPoint x="219.5" y="860" as="sourcePoint" />
            <mxPoint x="219.5" y="800" as="targetPoint" />
          </mxGeometry>
        </mxCell>
        <mxCell id="mPyTUqxMGJh4DycX4-v5-12" value="" style="endArrow=none;html=1;rounded=0;" edge="1" parent="WIyWlLk6GJQsqaUBKTNV-1">
          <mxGeometry width="50" height="50" relative="1" as="geometry">
            <mxPoint x="219.5" y="980" as="sourcePoint" />
            <mxPoint x="219.5" y="920" as="targetPoint" />
          </mxGeometry>
        </mxCell>
        <mxCell id="mPyTUqxMGJh4DycX4-v5-13" value="" style="strokeWidth=2;html=1;shape=mxgraph.flowchart.annotation_2;align=left;labelPosition=right;pointerEvents=1;rotation=-90;" vertex="1" parent="WIyWlLk6GJQsqaUBKTNV-1">
          <mxGeometry x="195" y="180" width="50" height="100" as="geometry" />
        </mxCell>
        <mxCell id="mPyTUqxMGJh4DycX4-v5-14" value="" style="strokeWidth=2;html=1;shape=mxgraph.flowchart.annotation_2;align=left;labelPosition=right;pointerEvents=1;rotation=-180;" vertex="1" parent="WIyWlLk6GJQsqaUBKTNV-1">
          <mxGeometry x="110" y="720" width="50" height="100" as="geometry" />
        </mxCell>
        <mxCell id="mPyTUqxMGJh4DycX4-v5-15" value="" style="strokeWidth=2;html=1;shape=mxgraph.flowchart.annotation_2;align=left;labelPosition=right;pointerEvents=1;" vertex="1" parent="WIyWlLk6GJQsqaUBKTNV-1">
          <mxGeometry x="280" y="600" width="50" height="100" as="geometry" />
        </mxCell>
        <mxCell id="mPyTUqxMGJh4DycX4-v5-16" value="" style="strokeWidth=2;html=1;shape=mxgraph.flowchart.annotation_2;align=left;labelPosition=right;pointerEvents=1;rotation=-180;" vertex="1" parent="WIyWlLk6GJQsqaUBKTNV-1">
          <mxGeometry x="110" y="480" width="50" height="100" as="geometry" />
        </mxCell>
        <mxCell id="mPyTUqxMGJh4DycX4-v5-17" value="" style="strokeWidth=2;html=1;shape=mxgraph.flowchart.annotation_2;align=left;labelPosition=right;pointerEvents=1;" vertex="1" parent="WIyWlLk6GJQsqaUBKTNV-1">
          <mxGeometry x="280" y="360" width="50" height="100" as="geometry" />
        </mxCell>
        <mxCell id="mPyTUqxMGJh4DycX4-v5-18" value="" style="strokeWidth=2;html=1;shape=mxgraph.flowchart.annotation_2;align=left;labelPosition=right;pointerEvents=1;" vertex="1" parent="WIyWlLk6GJQsqaUBKTNV-1">
          <mxGeometry x="280" y="840" width="50" height="100" as="geometry" />
        </mxCell>
        <mxCell id="mPyTUqxMGJh4DycX4-v5-19" value="" style="strokeWidth=2;html=1;shape=mxgraph.flowchart.annotation_2;align=left;labelPosition=right;pointerEvents=1;rotation=-180;" vertex="1" parent="WIyWlLk6GJQsqaUBKTNV-1">
          <mxGeometry x="110" y="960" width="50" height="100" as="geometry" />
        </mxCell>
        <mxCell id="mPyTUqxMGJh4DycX4-v5-23" value="&amp;nbsp;lineas_autobuses_tramos" style="strokeWidth=2;html=1;shape=mxgraph.flowchart.decision;whiteSpace=wrap;" vertex="1" parent="WIyWlLk6GJQsqaUBKTNV-1">
          <mxGeometry x="760" y="270" width="160" height="100" as="geometry" />
        </mxCell>
        <mxCell id="mPyTUqxMGJh4DycX4-v5-24" value="lineas_metro_estaciones" style="strokeWidth=2;html=1;shape=mxgraph.flowchart.decision;whiteSpace=wrap;" vertex="1" parent="WIyWlLk6GJQsqaUBKTNV-1">
          <mxGeometry x="760" y="520" width="160" height="100" as="geometry" />
        </mxCell>
        <mxCell id="mPyTUqxMGJh4DycX4-v5-28" value="nombre_calle" style="ellipse;whiteSpace=wrap;html=1;" vertex="1" parent="WIyWlLk6GJQsqaUBKTNV-1">
          <mxGeometry x="130" y="145" width="80" height="60" as="geometry" />
        </mxCell>
        <mxCell id="mPyTUqxMGJh4DycX4-v5-29" value="id_calle" style="ellipse;whiteSpace=wrap;html=1;" vertex="1" parent="WIyWlLk6GJQsqaUBKTNV-1">
          <mxGeometry x="230" y="145" width="80" height="60" as="geometry" />
        </mxCell>
        <mxCell id="mPyTUqxMGJh4DycX4-v5-32" value="id_calle_inicio" style="ellipse;whiteSpace=wrap;html=1;" vertex="1" parent="WIyWlLk6GJQsqaUBKTNV-1">
          <mxGeometry x="30" y="450" width="80" height="60" as="geometry" />
        </mxCell>
        <mxCell id="mPyTUqxMGJh4DycX4-v5-33" value="id_punto_interes" style="ellipse;whiteSpace=wrap;html=1;" vertex="1" parent="WIyWlLk6GJQsqaUBKTNV-1">
          <mxGeometry x="17" y="930" width="93" height="60" as="geometry" />
        </mxCell>
        <mxCell id="mPyTUqxMGJh4DycX4-v5-34" value="" style="ellipse;whiteSpace=wrap;html=1;" vertex="1" parent="WIyWlLk6GJQsqaUBKTNV-1">
          <mxGeometry x="-540" y="130" width="80" height="60" as="geometry" />
        </mxCell>
        <mxCell id="mPyTUqxMGJh4DycX4-v5-35" value="id_linea_autobus" style="ellipse;whiteSpace=wrap;html=1;" vertex="1" parent="WIyWlLk6GJQsqaUBKTNV-1">
          <mxGeometry x="330" y="570" width="100" height="60" as="geometry" />
        </mxCell>
        <mxCell id="mPyTUqxMGJh4DycX4-v5-36" value="" style="ellipse;whiteSpace=wrap;html=1;" vertex="1" parent="WIyWlLk6GJQsqaUBKTNV-1">
          <mxGeometry x="-627" y="60" width="80" height="60" as="geometry" />
        </mxCell>
        <mxCell id="mPyTUqxMGJh4DycX4-v5-37" value="nombre_punto_interes" style="ellipse;whiteSpace=wrap;html=1;" vertex="1" parent="WIyWlLk6GJQsqaUBKTNV-1">
          <mxGeometry x="-14" y="1030" width="124" height="60" as="geometry" />
        </mxCell>
        <mxCell id="mPyTUqxMGJh4DycX4-v5-38" value="id_calle_fin" style="ellipse;whiteSpace=wrap;html=1;" vertex="1" parent="WIyWlLk6GJQsqaUBKTNV-1">
          <mxGeometry x="30" y="550" width="80" height="60" as="geometry" />
        </mxCell>
        <mxCell id="mPyTUqxMGJh4DycX4-v5-39" value="" style="ellipse;whiteSpace=wrap;html=1;" vertex="1" parent="WIyWlLk6GJQsqaUBKTNV-1">
          <mxGeometry x="-780" y="160" width="80" height="60" as="geometry" />
        </mxCell>
        <mxCell id="mPyTUqxMGJh4DycX4-v5-40" value="nombre_linea_metro" style="ellipse;whiteSpace=wrap;html=1;" vertex="1" parent="WIyWlLk6GJQsqaUBKTNV-1">
          <mxGeometry x="-7" y="790" width="117" height="60" as="geometry" />
        </mxCell>
        <mxCell id="mPyTUqxMGJh4DycX4-v5-41" value="tipo_punto_interes" style="ellipse;whiteSpace=wrap;html=1;" vertex="1" parent="WIyWlLk6GJQsqaUBKTNV-1">
          <mxGeometry x="-110" y="960" width="110" height="60" as="geometry" />
        </mxCell>
        <mxCell id="mPyTUqxMGJh4DycX4-v5-42" value="nombre_linea_autobus" style="ellipse;whiteSpace=wrap;html=1;" vertex="1" parent="WIyWlLk6GJQsqaUBKTNV-1">
          <mxGeometry x="330" y="670" width="133" height="60" as="geometry" />
        </mxCell>
        <mxCell id="mPyTUqxMGJh4DycX4-v5-43" value="" style="ellipse;whiteSpace=wrap;html=1;" vertex="1" parent="WIyWlLk6GJQsqaUBKTNV-1">
          <mxGeometry x="-783.5" y="350" width="80" height="60" as="geometry" />
        </mxCell>
        <mxCell id="mPyTUqxMGJh4DycX4-v5-44" value="id_linea_metro" style="ellipse;whiteSpace=wrap;html=1;" vertex="1" parent="WIyWlLk6GJQsqaUBKTNV-1">
          <mxGeometry x="19.5" y="690" width="90.5" height="60" as="geometry" />
        </mxCell>
        <mxCell id="mPyTUqxMGJh4DycX4-v5-45" value="nombre_estacion" style="ellipse;whiteSpace=wrap;html=1;" vertex="1" parent="WIyWlLk6GJQsqaUBKTNV-1">
          <mxGeometry x="330" y="910" width="100" height="60" as="geometry" />
        </mxCell>
        <mxCell id="mPyTUqxMGJh4DycX4-v5-46" value="id_estacion" style="ellipse;whiteSpace=wrap;html=1;" vertex="1" parent="WIyWlLk6GJQsqaUBKTNV-1">
          <mxGeometry x="330" y="810" width="80" height="60" as="geometry" />
        </mxCell>
        <mxCell id="mPyTUqxMGJh4DycX4-v5-47" value="id_barrio" style="ellipse;whiteSpace=wrap;html=1;" vertex="1" parent="WIyWlLk6GJQsqaUBKTNV-1">
          <mxGeometry x="330" y="430" width="80" height="60" as="geometry" />
        </mxCell>
        <mxCell id="mPyTUqxMGJh4DycX4-v5-48" value="id_barrio" style="ellipse;whiteSpace=wrap;html=1;" vertex="1" parent="WIyWlLk6GJQsqaUBKTNV-1">
          <mxGeometry x="-60" y="550" width="80" height="60" as="geometry" />
        </mxCell>
        <mxCell id="mPyTUqxMGJh4DycX4-v5-49" value="id_tramo" style="ellipse;whiteSpace=wrap;html=1;" vertex="1" parent="WIyWlLk6GJQsqaUBKTNV-1">
          <mxGeometry x="-60" y="450" width="80" height="60" as="geometry" />
        </mxCell>
        <mxCell id="mPyTUqxMGJh4DycX4-v5-50" value="nombre_barrio" style="ellipse;whiteSpace=wrap;html=1;" vertex="1" parent="WIyWlLk6GJQsqaUBKTNV-1">
          <mxGeometry x="330" y="330" width="80" height="60" as="geometry" />
        </mxCell>
        <mxCell id="mPyTUqxMGJh4DycX4-v5-51" value="tipo_punto_interes" style="ellipse;whiteSpace=wrap;html=1;" vertex="1" parent="WIyWlLk6GJQsqaUBKTNV-1">
          <mxGeometry x="-530" y="970" width="110" height="60" as="geometry" />
        </mxCell>
        <mxCell id="mPyTUqxMGJh4DycX4-v5-52" value="Localizaciones" style="rounded=0;whiteSpace=wrap;html=1;" vertex="1" parent="WIyWlLk6GJQsqaUBKTNV-1">
          <mxGeometry x="-260" y="390" width="120" height="60" as="geometry" />
        </mxCell>
        <mxCell id="mPyTUqxMGJh4DycX4-v5-53" value="id_tramo_inicio&amp;nbsp;" style="ellipse;whiteSpace=wrap;html=1;" vertex="1" parent="WIyWlLk6GJQsqaUBKTNV-1">
          <mxGeometry x="800" y="140" width="80" height="60" as="geometry" />
        </mxCell>
        <mxCell id="mPyTUqxMGJh4DycX4-v5-54" value="&amp;nbsp;id_tramo_fin" style="ellipse;whiteSpace=wrap;html=1;" vertex="1" parent="WIyWlLk6GJQsqaUBKTNV-1">
          <mxGeometry x="890" y="140" width="80" height="60" as="geometry" />
        </mxCell>
        <mxCell id="mPyTUqxMGJh4DycX4-v5-55" value="&amp;nbsp;id_linea_autobus" style="ellipse;whiteSpace=wrap;html=1;" vertex="1" parent="WIyWlLk6GJQsqaUBKTNV-1">
          <mxGeometry x="690" y="140" width="97" height="60" as="geometry" />
        </mxCell>
        <mxCell id="mPyTUqxMGJh4DycX4-v5-56" value="" style="endArrow=none;html=1;rounded=0;" edge="1" parent="WIyWlLk6GJQsqaUBKTNV-1">
          <mxGeometry width="50" height="50" relative="1" as="geometry">
            <mxPoint x="839.5" y="270" as="sourcePoint" />
            <mxPoint x="840" y="200" as="targetPoint" />
          </mxGeometry>
        </mxCell>
        <mxCell id="mPyTUqxMGJh4DycX4-v5-57" value="" style="endArrow=none;html=1;rounded=0;" edge="1" parent="WIyWlLk6GJQsqaUBKTNV-1">
          <mxGeometry width="50" height="50" relative="1" as="geometry">
            <mxPoint x="840" y="270" as="sourcePoint" />
            <mxPoint x="920" y="200" as="targetPoint" />
          </mxGeometry>
        </mxCell>
        <mxCell id="mPyTUqxMGJh4DycX4-v5-58" value="" style="endArrow=none;html=1;rounded=0;" edge="1" parent="WIyWlLk6GJQsqaUBKTNV-1" source="mPyTUqxMGJh4DycX4-v5-55">
          <mxGeometry width="50" height="50" relative="1" as="geometry">
            <mxPoint x="780" y="240" as="sourcePoint" />
            <mxPoint x="840" y="270" as="targetPoint" />
          </mxGeometry>
        </mxCell>
        <mxCell id="mPyTUqxMGJh4DycX4-v5-60" value="" style="endArrow=none;html=1;rounded=0;entryX=0.5;entryY=1;entryDx=0;entryDy=0;" edge="1" parent="WIyWlLk6GJQsqaUBKTNV-1" target="mPyTUqxMGJh4DycX4-v5-65">
          <mxGeometry width="50" height="50" relative="1" as="geometry">
            <mxPoint x="839.5" y="520" as="sourcePoint" />
            <mxPoint x="840" y="450" as="targetPoint" />
          </mxGeometry>
        </mxCell>
        <mxCell id="mPyTUqxMGJh4DycX4-v5-62" value="" style="endArrow=none;html=1;rounded=0;entryX=0.388;entryY=0.983;entryDx=0;entryDy=0;entryPerimeter=0;" edge="1" parent="WIyWlLk6GJQsqaUBKTNV-1" target="mPyTUqxMGJh4DycX4-v5-67">
          <mxGeometry width="50" height="50" relative="1" as="geometry">
            <mxPoint x="840" y="520" as="sourcePoint" />
            <mxPoint x="920" y="450" as="targetPoint" />
          </mxGeometry>
        </mxCell>
        <mxCell id="mPyTUqxMGJh4DycX4-v5-64" value="" style="endArrow=none;html=1;rounded=0;exitX=0.742;exitY=0.967;exitDx=0;exitDy=0;exitPerimeter=0;" edge="1" parent="WIyWlLk6GJQsqaUBKTNV-1" source="mPyTUqxMGJh4DycX4-v5-68">
          <mxGeometry width="50" height="50" relative="1" as="geometry">
            <mxPoint x="764" y="445" as="sourcePoint" />
            <mxPoint x="840" y="520" as="targetPoint" />
          </mxGeometry>
        </mxCell>
        <mxCell id="mPyTUqxMGJh4DycX4-v5-65" value="id_tramo_inicio&amp;nbsp;" style="ellipse;whiteSpace=wrap;html=1;" vertex="1" parent="WIyWlLk6GJQsqaUBKTNV-1">
          <mxGeometry x="800" y="380" width="80" height="60" as="geometry" />
        </mxCell>
        <mxCell id="mPyTUqxMGJh4DycX4-v5-66" value="id_tramo_inicio&amp;nbsp;" style="ellipse;whiteSpace=wrap;html=1;" vertex="1" parent="WIyWlLk6GJQsqaUBKTNV-1">
          <mxGeometry x="560" y="830" width="80" height="60" as="geometry" />
        </mxCell>
        <mxCell id="mPyTUqxMGJh4DycX4-v5-67" value="&amp;nbsp;id_tramo_fin" style="ellipse;whiteSpace=wrap;html=1;" vertex="1" parent="WIyWlLk6GJQsqaUBKTNV-1">
          <mxGeometry x="890" y="380" width="80" height="60" as="geometry" />
        </mxCell>
        <mxCell id="mPyTUqxMGJh4DycX4-v5-68" value="&amp;nbsp;id_linea_autobus" style="ellipse;whiteSpace=wrap;html=1;" vertex="1" parent="WIyWlLk6GJQsqaUBKTNV-1">
          <mxGeometry x="690" y="380" width="97" height="60" as="geometry" />
        </mxCell>
        <mxCell id="mPyTUqxMGJh4DycX4-v5-69" value="puntos_interes_localizaciones" style="strokeWidth=2;html=1;shape=mxgraph.flowchart.decision;whiteSpace=wrap;" vertex="1" parent="WIyWlLk6GJQsqaUBKTNV-1">
          <mxGeometry x="740" y="810" width="180" height="100" as="geometry" />
        </mxCell>
        <mxCell id="mPyTUqxMGJh4DycX4-v5-70" value="" style="endArrow=none;html=1;rounded=0;entryX=0.388;entryY=0.983;entryDx=0;entryDy=0;entryPerimeter=0;" edge="1" parent="WIyWlLk6GJQsqaUBKTNV-1">
          <mxGeometry width="50" height="50" relative="1" as="geometry">
            <mxPoint x="828.96" y="810" as="sourcePoint" />
            <mxPoint x="909.96" y="729" as="targetPoint" />
          </mxGeometry>
        </mxCell>
        <mxCell id="mPyTUqxMGJh4DycX4-v5-72" value="" style="endArrow=none;html=1;rounded=0;exitX=0.742;exitY=0.967;exitDx=0;exitDy=0;exitPerimeter=0;" edge="1" parent="WIyWlLk6GJQsqaUBKTNV-1">
          <mxGeometry width="50" height="50" relative="1" as="geometry">
            <mxPoint x="750.03" y="728" as="sourcePoint" />
            <mxPoint x="828.03" y="810" as="targetPoint" />
          </mxGeometry>
        </mxCell>
        <mxCell id="mPyTUqxMGJh4DycX4-v5-73" value="id_punto_interes" style="ellipse;whiteSpace=wrap;html=1;" vertex="1" parent="WIyWlLk6GJQsqaUBKTNV-1">
          <mxGeometry x="680" y="670" width="97" height="60" as="geometry" />
        </mxCell>
        <mxCell id="mPyTUqxMGJh4DycX4-v5-74" value="id_localizacion" style="ellipse;whiteSpace=wrap;html=1;" vertex="1" parent="WIyWlLk6GJQsqaUBKTNV-1">
          <mxGeometry x="880" y="670" width="80" height="60" as="geometry" />
        </mxCell>
      </root>
    </mxGraphModel>
  </diagram>
</mxfile>
